<?xml version="1.0" encoding="utf-8"?>
<!-- Generator: Adobe Illustrator 19.2.1, SVG Export Plug-In . SVG Version: 6.00 Build 0)  -->
<svg version="1.1" id="圖層_1" xmlns="http://www.w3.org/2000/svg" xmlns:xlink="http://www.w3.org/1999/xlink" x="0px" y="0px"
	 viewBox="0 0 89.1 327.8" style="enable-background:new 0 0 89.1 327.8;" xml:space="preserve">
<style type="text/css">
	.st0{fill:#3F4D5D;}
</style>
<g transform="translate(44.549 163.893)">
	<g transform="translate(-44.549 -163.893)">
		<path class="st0" d="M68,207.5v-36h1.2v36H68z"/>
		<path class="st0" d="M68,243.5v-36h1.2v36H68z"/>
		<g>
			<path class="st0" d="M64.4,34.5h-7.6v3.1h-3.2V10.3h10.8V34.5z M56.8,13.4v7.4h4.4v-7.4H56.8z M61.2,31.5v-7.7h-4.4v7.7H61.2z
				 M77.2,15.2v4.2h7.7v3h-3v3.5h3.9v3h-3.9v9c0,1.8-0.4,2.7-1.6,3.2c-1.3,0.6-3.2,0.6-6,0.6c-0.1-0.9-0.7-2.3-1.1-3.2
				c2.1,0.1,4.1,0.1,4.7,0.1c0.6,0,0.8-0.2,0.8-0.7v-9H65.2v-3h13.3v-3.5h-12v-3h7.3v-4.2h-8.7v-3h8.7V7.9h3.4v4.2h8.8v3H77.2z
				 M69.9,29.8c1.6,1.8,3.6,4.4,4.6,6.1l-3,1.8c-0.8-1.7-2.8-4.4-4.4-6.3L69.9,29.8z"/>
			<path class="st0" d="M59.8,58.1c-0.8-2-2.8-5.1-4.6-7.4l3-1.3c1.9,2.2,3.9,5.1,4.8,7.2L59.8,58.1z M83.3,78.1
				c0,1.8-0.3,2.8-1.6,3.3c-1.2,0.6-3.2,0.6-6,0.6c-0.1-1-0.6-2.4-1.1-3.3c2,0.1,4,0,4.6,0c0.6,0,0.8-0.2,0.8-0.7V62.1H58.6v20h-3.4
				V58.9h12.1V48.4h3.5v10.5h12.4V78.1z M65.6,75.9v2.4h-3.1v-13h13.4v10.6H65.6z M65.6,68.1V73h7.1v-4.9H65.6z M83.3,50.4
				c-1.7,2.7-3.7,5.8-5.3,7.7l-2.8-1.2c1.6-2,3.6-5.3,4.7-7.8L83.3,50.4z"/>
			<path class="st0" d="M65.6,118.6c0,1.7-0.3,2.7-1.3,3.2c-1,0.6-2.5,0.7-5,0.6c-0.1-0.8-0.5-2.4-0.9-3.3c1.5,0.1,3,0,3.5,0
				c0.4,0,0.6-0.2,0.6-0.7v-8.3h-5c-0.3,4.3-1,8.9-2.6,12.3c-0.6-0.5-2-1.3-2.8-1.6c2.4-5.1,2.6-12.4,2.6-17.8V90.1h10.9V118.6z
				 M62.5,107.1v-5.4h-4.7v1.5c0,1.2,0,2.5-0.1,3.9H62.5z M57.8,93.2v5.2h4.7v-5.2H57.8z M85.4,103.2c-0.9,4.9-2.5,9-4.7,12.2
				c1.7,1.8,3.6,3.4,5.8,4.4c-0.8,0.6-1.7,1.8-2.2,2.6c-2.1-1.1-4-2.7-5.6-4.5c-1.5,1.8-3.2,3.2-5.1,4.3c-0.4-0.8-1.3-1.9-2-2.5v2.6
				h-3.2V90.2h16v7.1c0,1.6-0.3,2.5-1.6,2.9c-1.3,0.5-3.2,0.5-5.9,0.5c-0.1-0.9-0.7-2.1-1.1-2.9c2,0.1,4.1,0.1,4.6,0
				c0.6,0,0.8-0.1,0.8-0.6v-3.8h-9.5v9.3h11.3l0.6-0.1L85.4,103.2z M71.6,119.8c1.9-1,3.7-2.5,5.2-4.3c-1.9-2.8-3.5-6.1-4.6-9.7
				h-0.7V119.8z M75.1,105.8c0.8,2.6,2,5,3.5,7.1c1.3-2.1,2.4-4.4,3.1-7.1H75.1z"/>
			<path class="st0" d="M57.2,136.3c-1.2,1.1-2.5,2.2-3.7,3.1c-0.2-0.7-0.9-2.4-1.4-3.1c2.8-1.7,5.8-4.5,7.5-7.5l2.7,1
				c-0.2,0.4-0.4,0.8-0.7,1.2c1.8,1,3.9,2.2,5.1,2.9l-1.5,2.6c-1.1-0.9-3.3-2.2-5.2-3.3c-0.7,1-1.6,1.9-2.4,2.8h5.9v2.4h-6.2V136.3z
				 M78,136.9v4.7h6.6V155c0,1.4-0.2,2.2-1.1,2.7c-0.9,0.5-2,0.6-3.7,0.6c-0.1-0.8-0.6-2.1-1-2.9h2.2c0.3,0,0.4-0.1,0.4-0.4v-10.3
				H78v18.2h-3.3v-18.2h-3.6v13.8h-3v-16.1l-0.3,0.4c-0.6-0.5-1.9-1.5-2.6-2v12h-7.9v5.5l4.3-1.5c-0.4-0.8-0.8-1.7-1.2-2.4l2.4-1
				c1.3,2.3,2.9,5.4,3.7,7.2l-2.5,1.2c-0.3-0.8-0.7-1.7-1.2-2.7c-6.9,2.7-8,3.2-8.7,3.7c-0.1-0.8-0.7-2.1-1.1-2.9
				c0.6-0.3,1.4-0.8,1.4-2.1v-17.6h10.8v0.5c2.3-2.8,4-7.1,4.9-11.5l3.2,0.6c-0.3,1.4-0.7,2.8-1.1,4.1h13.4v3.1H78z M57.3,142.7v2.5
				h4.8v-2.5H57.3z M62.2,150.2v-2.6h-4.8v2.6H62.2z M74.7,136.9H71c-0.7,1.8-1.5,3.3-2.4,4.7h6.2V136.9z"/>
		</g>
		<g>
			<path class="st0" d="M40.3,38.3v3.7H6.9v-3.7H40.3z"/>
			<path class="st0" d="M39.9,93.4v3.3H7.3v-3.3h14.5V85H11.4v-3.3h10.5v-7.3h-8.2c-1.1,2.2-2.4,4.2-3.6,5.7
				c-0.7-0.6-2.2-1.6-3.1-2.1c3-3.1,5.3-8.2,6.6-13.3l3.5,0.8c-0.6,1.9-1.2,3.7-1.9,5.5h6.6v-6.8h3.5V71h12.8v3.3H25.4v7.3h11.4V85
				H25.4v8.4H39.9z"/>
			<path class="st0" d="M17.7,105.6c-1,2.8-2.3,5.5-3.7,8.1v24.5h-3.2v-19.4c-0.9,1.2-1.8,2.4-2.7,3.4c-0.3-0.8-1.2-2.6-1.8-3.5
				c3.3-3.4,6.4-8.7,8.2-14.1L17.7,105.6z M40.3,134.5v2.9H15.8v-2.9h3.4v-20.4h6.3c0.2-0.9,0.4-1.9,0.6-3h-8.6v-2.9h9.1
				c0.2-1.2,0.3-2.5,0.4-3.5l3.6,0.1c-0.2,1.1-0.4,2.2-0.6,3.4h9.4v2.9h-10c-0.2,1.1-0.5,2.1-0.7,3h8.7v20.4H40.3z M22.2,116.7v2.6
				h11.9v-2.6H22.2z M34.1,121.7H22.2v2.6h11.9V121.7z M22.2,126.7v2.7h11.9v-2.7H22.2z M22.2,134.5h11.9v-2.6H22.2V134.5z"/>
			<path class="st0" d="M18,154.2c-0.8,1.5-1.9,3-3.1,4.6v19.8h-3.3v-16.1c-1.2,1.4-2.6,2.5-3.9,3.6c-0.3-0.8-1.2-2.6-1.7-3.5
				c3.3-2.3,6.8-6,9-9.7L18,154.2z M17.5,146.3c-2.3,3.2-5.9,6.7-9.2,8.9c-0.4-0.8-1.2-2.1-1.8-2.8c2.9-1.8,6.1-4.8,7.6-7.3
				L17.5,146.3z M40,168.9h-5.3v6.2c0,1.7-0.3,2.5-1.5,3c-1.2,0.5-3,0.6-5.6,0.6c-0.2-0.9-0.7-2.2-1.1-3.1c1.8,0.1,3.6,0.1,4.1,0
				c0.6,0,0.7-0.1,0.7-0.6v-6.1H17.2v-2.9h14.1v-2.7H18.1v-2.8h21.2v2.8h-4.6v2.7H40V168.9z M22.5,169.1c1.6,1.5,3.6,3.6,4.5,5
				l-2.6,1.8c-0.8-1.4-2.8-3.6-4.4-5.2L22.5,169.1z M37.9,158.3H20.2V146h17.7V158.3z M34.4,148.5H23.5v2.5h10.9V148.5z M34.4,153.3
				H23.5v2.5h10.9V153.3z"/>
			<path class="st0" d="M17.8,186.5c-1,2.6-2.2,5.2-3.6,7.7V219h-3.2v-19.8c-1,1.4-2.1,2.7-3.2,3.9c-0.3-0.8-1.3-2.7-1.9-3.5
				c3.5-3.4,6.7-8.8,8.7-14.1L17.8,186.5z M30.6,195.3v19.8c0,1.8-0.4,2.8-1.5,3.3c-1.1,0.6-2.8,0.7-5.1,0.7c-0.1-1-0.7-2.5-1.2-3.4
				c1.7,0,3.2,0,3.7,0c0.5,0,0.7-0.1,0.7-0.6v-19.8h-5c-1.1,2.3-2.3,4.4-3.5,6c-0.6-0.6-2-1.7-2.8-2.2c2.8-3.2,4.8-8.4,6.1-13.6
				l3.4,0.7c-0.5,2-1.1,4-1.9,5.9h13.9l0.6-0.1l2.4,0.5c-0.5,2.8-1.1,6-1.6,8.1l-2.9-0.6c0.3-1.2,0.5-3,0.7-4.7H30.6z M24.6,201.9
				c-1.1,4.7-3,9.4-5.2,12.4c-0.6-0.6-2.1-1.4-2.9-1.8c2.2-2.7,3.8-6.9,4.7-11.2L24.6,201.9z M35.7,200.9c2,3.8,3.7,8.7,4.3,12
				l-3.3,1.2c-0.5-3.3-2.2-8.4-4.1-12.2L35.7,200.9z"/>
			<path class="st0" d="M16.5,244.6c-1,0.4-2,0.8-3,1.1v9.8c0,1.6-0.3,2.5-1.2,3c-1,0.5-2.3,0.6-4.4,0.6c-0.1-0.8-0.5-2.2-0.9-3
				c1.4,0.1,2.6,0.1,3,0c0.4,0,0.6-0.1,0.6-0.6v-8.7L7.4,248l-0.9-3.3c1.1-0.4,2.5-0.8,4-1.4v-7.3H7v-3.2h3.6v-7.1h2.9v7.1h2.7v3.2
				h-2.7v6.3l2.5-0.8L16.5,244.6z M23.3,246.5c0.1-0.6,0.2-1.1,0.3-1.7l2.5,0.5c-1.2,6.4-4.1,11.1-9,14c-0.4-0.6-1.3-1.6-1.9-2.1
				c3.2-1.8,5.6-4.4,7.1-7.7c-4,1.1-4.8,1.4-5.4,1.8c-0.1-0.6-0.6-1.9-0.9-2.6c0.7-0.2,1.3-1,2.1-2.1c0.4-0.7,1.4-2.4,2.5-4.5
				c-2.6,0.3-3.4,0.5-3.8,0.8c-0.2-0.6-0.7-1.9-1-2.7c0.5-0.1,0.9-0.6,1.3-1.4c0.4-0.7,1.8-3.6,2.4-6.2l2.7,1.2
				c-0.7,1.9-1.6,3.9-2.6,5.6l2.4-0.2c0.3-0.7,0.6-1.5,0.9-2.3l2.5,1.4c-1.3,3-2.9,6.1-4.6,8.7L23.3,246.5z M40,232.5H16.8v-2.9h9.9
				c-0.4-0.9-0.9-1.9-1.4-2.7l2.4-0.9c0.8,1.1,1.5,2.5,1.9,3.6H40V232.5z M40.1,257.2H29.3v1.8h-2.7v-15.4c-0.2,0.3-0.4,0.5-0.6,0.7
				c-0.4-0.4-1.5-1.4-2.2-1.8c2-2.3,3.6-5.9,4.7-9.4l2.6,0.7c-0.3,1.1-0.7,2.3-1.2,3.3h3.6c-0.4-1-0.9-2.1-1.4-3l2.3-0.8
				c0.7,1.1,1.4,2.7,1.8,3.8h3.3v2.6h-4.2v3.2h3.6v2.4h-3.6v3.2H39v2.4h-3.5v3.7h4.6V257.2z M32.8,239.7h-3.5v3.2h3.5V239.7z
				 M32.8,245.3h-3.5v3.2h3.5V245.3z M29.3,254.6h3.5v-3.7h-3.5V254.6z"/>
			<path class="st0" d="M20,273.9c-0.6,1.2-1.2,2.5-1.9,3.7h17.4v18.3c0,1.8-0.4,2.9-1.7,3.4c-1.3,0.6-3.3,0.6-6.4,0.6
				c-0.1-0.9-0.6-2.4-1.1-3.3c2.2,0.1,4.4,0.1,5,0.1c0.6,0,0.8-0.2,0.8-0.7v-3.2H17.3c-0.6,2.8-1.7,5.4-3.9,7.4
				c-0.4-0.8-1.8-2.2-2.5-2.7c3.1-2.8,3.4-6.8,3.4-10.2v-4.3c-1.6,1.9-3.3,3.5-5.3,4.9c-0.5-0.8-1.5-2-2.2-2.6
				c4-2.7,7.2-6.8,9.4-11.2H7.6v-3.2h10.1c0.6-1.5,1.1-3.1,1.5-4.6l3.5,0.8c-0.4,1.2-0.8,2.5-1.3,3.8h18.3v3.2H20z M32.1,289.8v-3.2
				H17.7v0.6c0,0.8,0,1.7-0.1,2.6H32.1z M32.1,280.6H17.7v3.2h14.3V280.6z"/>
			<path class="st0" d="M23.6,308.5c3.2,0,5.7,2.6,5.7,5.7s-2.5,5.7-5.7,5.7c-3.2,0-5.7-2.6-5.7-5.7S20.5,308.5,23.6,308.5z
				 M23.6,317.8c1.9,0,3.5-1.6,3.5-3.5s-1.6-3.5-3.5-3.5c-1.9,0-3.5,1.6-3.5,3.5S21.7,317.8,23.6,317.8z"/>
		</g>
	</g>
</g>
</svg>
