<?xml version="1.0" encoding="utf-8"?>
<!-- Generator: Adobe Illustrator 19.2.1, SVG Export Plug-In . SVG Version: 6.00 Build 0)  -->
<svg version="1.1" id="圖層_1" xmlns="http://www.w3.org/2000/svg" xmlns:xlink="http://www.w3.org/1999/xlink" x="0px" y="0px"
	 viewBox="0 0 88.9 307.2" style="enable-background:new 0 0 88.9 307.2;" xml:space="preserve">
<style type="text/css">
	.st0{fill:#3F4D5D;}
</style>
<g transform="translate(44.469 153.576)">
	<g transform="translate(-44.468 -153.576)">
		<g>
			<g>
				<path class="st0" d="M84.5,22c0,0,0,1-0.1,1.4c-0.6,7.6-1.3,10.8-2.5,12c-0.8,0.8-1.5,1.1-2.6,1.1c-1,0.1-2.8,0.1-4.6,0
					c0-1-0.4-2.3-0.9-3.2c1.7,0.2,3.3,0.2,4,0.2c0.6,0,1-0.1,1.3-0.4c0.7-0.6,1.3-2.9,1.8-8.1H58.2c-1.9,1.5-3.9,2.8-6.1,3.9
					c-0.4-0.8-1.3-2.3-1.9-3c6.7-3.3,11.8-8.6,15.4-14.6H52.7V8.1h7c-0.5-1.5-1.6-3.6-2.7-5.2l3-1.2c1.3,1.7,2.6,4.1,3.1,5.6l-2,0.8
					h6.2c1.1-2.1,2-4.4,2.7-6.6l3.6,1c-0.7,1.9-1.5,3.8-2.3,5.6h7.6c-0.4,2.3-0.9,4.9-1.4,6.9h4.4c-0.3,2.3-0.8,4.9-1.3,6.9H84.5z
					 M51.7,34.6c2.2-1.8,3.7-4.8,4.3-7.8l3,1c-0.8,3.2-2.1,6.5-4.6,8.6L51.7,34.6z M63.9,27.8c0.7,2.2,1.1,5.1,1.1,7l-3.1,0.4
					c0.1-1.9-0.3-4.8-0.8-7L63.9,27.8z M65.2,18.1c-1.1,1.3-2.3,2.6-3.5,3.9h15.7c0.3-1.1,0.5-2.5,0.8-3.9H65.2z M69.6,27.1
					c0.9,1.9,1.7,4.5,2,6.1L68.7,34c-0.3-1.7-1.1-4.3-1.9-6.2L69.6,27.1z M69.6,11.3c-0.7,1.3-1.5,2.5-2.3,3.7h7
					c0.3-1.1,0.5-2.4,0.8-3.7H69.6z M74.9,32.2c-0.4-1.4-1.5-3.6-2.5-5.2l2.4-0.8c1.1,1.5,2.3,3.6,2.7,5L74.9,32.2z"/>
				<path class="st0" d="M62.9,44.8c-1,2.6-2.2,5.2-3.6,7.6v26.2h-3.4V58c-1.1,1.6-2.4,3.1-3.6,4.4c-0.3-0.9-1.3-2.8-2-3.6
					c3.7-3.6,7.2-9.2,9.3-14.9L62.9,44.8z M85.3,60h-9.9v18.7h-3.7V60H61.5v-3.5h10.2V44.1h3.7v12.4h9.9V60z"/>
				<path class="st0" d="M56.5,91.7v7.5c0,6.1-0.5,15.5-3.4,21.7c-0.6-0.7-2.1-1.8-2.8-2.1c2.6-5.7,2.8-13.8,2.8-19.5V88.6h14.5
					c-0.2-0.8-0.5-1.7-0.8-2.4l3.6-0.7c0.4,1,0.8,2.2,1,3.1h13.3v3.1H56.5z M61,100.5c0,2-0.3,4.4-2.2,6.1c-0.4-0.5-1.3-1.2-1.8-1.5
					c1.6-1.2,1.9-3.2,1.9-4.7v-1.6H61V100.5z M78.4,111.4c2,2.4,4.7,5.7,6.1,7.7l-2.8,1.5c-0.4-0.7-0.9-1.4-1.6-2.3
					c-18.5,1.4-20.5,1.4-21.7,1.9c-0.1-0.6-0.5-2.1-0.8-2.9c1.1-0.2,2.5-0.7,4.4-1.6c1-0.4,2.9-1.4,5.2-2.7
					c-5.6,0.3-6.6,0.5-7.2,0.7c-0.1-0.6-0.5-2-0.8-2.8c0.7-0.1,1.5-0.5,2.4-1c1-0.5,4.4-2.6,6.7-4.8l2.5,1.5
					c-2.1,1.7-4.4,3.2-6.7,4.4l6.6-0.3c1.8-1.1,3.6-2.4,5.2-3.7l2.7,1.9c-4.4,3.1-8.9,5.7-13.3,7.9l12.8-0.9
					c-0.8-1.1-1.7-2.1-2.4-3.1L78.4,111.4z M62.6,106v-8.5h-4.5v-2.8h4.5v-2h2.8v2h4.7v2.8h-4.7v8.5H62.6z M74.4,100.4
					c0,1.9-0.3,4.1-2.1,5.7c-0.3-0.4-1.1-1.1-1.7-1.4v0.2c-0.3,0.1-0.8,0.1-1.3,0.1h-0.8c-1.6,0-1.9-0.7-1.9-2.4V99h2.1v3.6
					c0,0.6,0,0.8,0.4,0.8h0.1h0.1c0.3,0,0.8,0,1.2-0.1l0.1,1.3c1.5-1.1,1.7-2.9,1.7-4.2v-1.6h2.1V100.4z M75.9,105.9v-8.4h-4.8v-2.8
					h4.8v-2h2.8v2h5.7v2.8h-5.7v8.4H75.9z M83.6,103.9c0.3,0,1.1,0,1.4-0.2l0.1,1.6c-0.3,0.1-0.9,0.1-1.5,0.1h-1.5
					c-1.8,0-2.1-0.8-2.1-2.5v-4.1h2.1v4.2c0,0.6,0,0.9,0.5,0.9H83.6z"/>
			</g>
		</g>
		<path class="st0" d="M67.8,164.5v-36H69v36H67.8z"/>
		<path class="st0" d="M67.8,200.5v-36H69v36H67.8z"/>
		<g>
			<g>
				<path class="st0" d="M12.1,146.7c-0.9,2.6-1.9,5.2-3.1,7.7v26.3H5.8v-20.4c-1,1.6-2,3-3,4.2c-0.3-0.9-1.3-2.8-1.8-3.7
					c3.2-3.7,6.1-9.3,7.8-15L12.1,146.7z M35.1,155.9c-0.7,6.2-1.8,11.2-3.8,15.4c1.4,2.7,3.3,4.9,5.8,6.5c-0.6,0.6-1.7,2-2.1,2.8
					c-2.3-1.6-4-3.8-5.4-6.2c-1.7,2.5-3.7,4.5-6.4,6.3c-0.4-0.6-1.5-1.9-2.2-2.4c3.1-1.8,5.4-4.1,7-7.1c-1.2-3-2-6.3-2.6-9.4
					c-0.5,1-1,1.9-1.6,2.8c-0.2-0.3-0.4-0.7-0.7-1.1v13.2h-8.3v2.6h-3.1v-16.3h4.1V156h-4.9v-3.2h4.9v-6.7H19v6.7h4.6v3.2H19v6.8
					h3.6c-0.3-0.5-0.7-0.9-1-1.2c2.6-3.9,4.1-9.8,4.9-15.9l3.2,0.6c-0.4,2.2-0.8,4.5-1.3,6.6h8.3v3H35.1z M19.9,165.8h-5.2v7.6h5.2
					V165.8z M27.6,155.9c-0.1,0.3-0.2,0.6-0.3,0.9c0.4,3.4,1.1,7.2,2.3,10.6c1.2-3.3,1.9-7.2,2.4-11.5H27.6z"/>
				<path class="st0" d="M15.6,218.8c0,1.7-0.3,2.8-1.4,3.4c-1.1,0.6-2.6,0.7-5.2,0.6c-0.1-0.9-0.5-2.5-1-3.4c1.6,0.1,3.1,0,3.6,0
					c0.5,0,0.6-0.2,0.6-0.7v-8.6H7.1c-0.3,4.5-1.1,9.3-2.8,12.8c-0.6-0.5-2.1-1.3-2.9-1.6c2.5-5.3,2.7-12.9,2.7-18.5v-13.7h11.4
					V218.8z M12.3,206.7v-5.6H7.4v1.6c0,1.2,0,2.6-0.1,4H12.3z M7.4,192.3v5.4h4.9v-5.4H7.4z M36.1,202.7c-0.9,5.1-2.6,9.3-4.9,12.7
					c1.8,1.9,3.8,3.5,6.1,4.6c-0.8,0.7-1.8,1.9-2.3,2.8c-2.2-1.2-4.1-2.8-5.8-4.7c-1.6,1.8-3.4,3.3-5.4,4.5c-0.5-0.8-1.3-2-2.1-2.6
					v2.7h-3.4v-33.6H35v7.3c0,1.6-0.3,2.6-1.7,3C32,200,30,200,27.2,200c-0.2-0.9-0.7-2.2-1.1-3c2.1,0.1,4.2,0.1,4.8,0
					c0.6,0,0.8-0.1,0.8-0.6v-4h-9.9v9.7h11.7l0.6-0.1L36.1,202.7z M21.8,220c2-1,3.8-2.6,5.4-4.5c-2-2.9-3.6-6.3-4.7-10.1h-0.7V220z
					 M25.5,205.4c0.9,2.7,2.1,5.2,3.6,7.4c1.3-2.2,2.4-4.6,3.2-7.4H25.5z"/>
				<path class="st0" d="M6.8,237.2c-1.2,1.2-2.6,2.3-3.9,3.2c-0.2-0.7-1-2.4-1.5-3.2c2.9-1.8,6-4.7,7.8-7.8l2.8,1
					c-0.2,0.4-0.5,0.8-0.7,1.3c1.9,1,4.1,2.3,5.3,3.1l-1.6,2.8c-1.2-0.9-3.4-2.3-5.4-3.4c-0.8,1-1.6,2-2.5,2.9h6.2v2.4H6.8V237.2z
					 M28.5,237.8v4.9h6.9v13.9c0,1.4-0.2,2.3-1.1,2.8c-0.9,0.5-2.1,0.6-3.8,0.6c-0.1-0.9-0.6-2.2-1-3h2.3c0.3,0,0.5-0.1,0.5-0.5
					v-10.7h-3.6v19H25v-19h-3.7v14.3h-3.2v-16.7l-0.3,0.4c-0.6-0.5-2-1.6-2.7-2.1v12.5H6.9v5.7l4.5-1.6c-0.5-0.8-0.8-1.7-1.3-2.5
					l2.4-1c1.4,2.4,3,5.7,3.8,7.5l-2.6,1.3c-0.3-0.8-0.8-1.8-1.2-2.8c-7.2,2.8-8.3,3.4-9,3.9c-0.2-0.8-0.7-2.2-1.1-3
					c0.6-0.3,1.4-0.8,1.4-2.2v-18.4h11.2v0.5c2.4-2.9,4.2-7.4,5.1-12l3.3,0.6c-0.3,1.5-0.7,2.9-1.1,4.3h14v3.2H28.5z M6.9,243.8v2.6
					h5v-2.6H6.9z M12,251.7V249h-5v2.7H12z M25,237.8h-3.9c-0.7,1.8-1.6,3.5-2.5,4.9H25V237.8z"/>
				<g>
					<path class="st0" d="M12.1,41.3c-0.6,3.2-1.6,6.5-2.9,9.2c0.7,0.4,1.5,1,2.9,1.9c2.5,1.6,5.9,1.8,10.3,1.8
						c4.5,0,10.8-0.3,14.9-0.9c-0.4,0.9-1,2.6-1,3.6c-2.9,0.2-9.7,0.4-14.1,0.4c-4.9,0-8.1-0.4-10.7-2c-1.5-0.9-2.9-2.2-3.7-2.2
						s-2.1,2.4-3.1,4.7l-2.4-3.2c1-1.3,2-2.4,2.9-3.2l0,0c1.4-2,2.6-5,3.3-7.8H3.8c0.9-2.2,2-5.2,2.9-8.1H3v-3.1h8
						C10.2,35,9.2,38,8.2,40.6h1.3l0.5-0.1L12.1,41.3z M7.3,30.9c-0.5-1.7-1.5-4.3-2.2-6.3l3.1-0.9c0.7,2,1.8,4.5,2.3,6.1L7.3,30.9z
						 M22.8,48.2c-1.9,1.8-4.9,3.6-7.4,4.8c-0.6-0.6-1.8-1.6-2.6-2.1c2.6-0.9,5.2-2.3,6.9-3.6h-7.5v-2.6h6.2v-2.9h-4.8V39h4.8v-2.3
						h3.2V39h5.2v-2.3h3.2V39h4.9v2.6h-4.9v2.9h6.4v2.6h-8c2.6,1.2,5.4,2.9,7.1,4.1l-3,1.5c-1.5-1.3-4.2-3-6.6-4.2l1.9-1.4H20
						L22.8,48.2z M23.2,32.8c-0.3,0.8-0.5,1.9-0.6,2.5c-7.3,1.2-8.4,1.5-9.1,1.8c-0.2-0.7-0.7-2-1.2-2.6c0.5-0.3,1-0.9,1-2.2v-7.4
						h10.1v6.6h-7.4v2.3L23.2,32.8z M16.2,27.1v2.1h4.5v-2.1H16.2z M21.6,44.6h5.2v-2.9h-5.2V44.6z M28.6,36.1
						c-2.9,0-3.6-1.1-3.6-3.8v-7.4h10.3v6.6h-7.5v0.8c0,1,0.1,1.4,1,1.4h4.3c0.7,0,1.9-0.1,2.4-0.2c0.1,0.7,0.1,1.8,0.3,2.4
						c-0.5,0.2-1.6,0.2-2.6,0.2H28.6z M27.9,27.1v2.1h4.5v-2.1H27.9z"/>
					<path class="st0" d="M13.9,83.1c-1.2,0.4-2.4,0.8-3.6,1.2v10.3c0,1.7-0.3,2.7-1.3,3.2c-1,0.6-2.5,0.7-4.8,0.7
						c-0.1-0.8-0.5-2.3-0.9-3.2c1.5,0.1,2.9,0,3.3,0c0.5,0,0.7-0.1,0.7-0.7v-9.3l-3.8,1.2l-0.8-3.3c1.3-0.3,2.9-0.8,4.6-1.3v-7H3
						v-3.2h4.2v-7.2h3.2v7.2h3.5v3.2h-3.5v6.1l3.2-1L13.9,83.1z M36.6,93.7h-9.7v4.8h-3.2v-4.8h-9.8v-2.6h9.8v-2.3h-8.5v-2.6h4.5
						c-0.3-0.8-0.6-1.9-1-2.6L21,83h-6.5v-2.7h9.2v-2.2H16v-2.5h7.7v-1.9h-8.1v-8h20.1v8h-8.7v1.9h8.1v2.5h-8.1v2.2h9.2V83h-5.8
						l2.3,0.6c-0.5,0.9-1,1.8-1.4,2.6h4.1v2.6h-8.4v2.3h9.7V93.7z M21.2,68.1h-2.9v3.2h2.9V68.1z M21.5,83c0.5,1,1,2.3,1.3,3.2H28
						c0.5-1,1-2.2,1.3-3.2H21.5z M23.9,71.3h3v-3.2h-3V71.3z M29.6,71.3h3.1v-3.2h-3.1V71.3z"/>
					<path class="st0" d="M34.5,109.8c-3.3,3.6-8.2,7.5-12.8,10.1v15.3c0,2.1-0.6,3.2-2.2,3.6c-1.6,0.6-4.1,0.6-7.8,0.6
						c-0.1-1-0.8-2.6-1.4-3.5c2.9,0.1,5.8,0.1,6.7,0.1c0.8,0,1.1-0.2,1.1-0.9v-16.9c3.2-1.7,6.9-4.3,9.5-6.7H4.9V108H31l0.8-0.2
						L34.5,109.8z"/>
				</g>
			</g>
		</g>
		<g>
			<g>
				<path class="st0" d="M23.2,277.3c0-2.1-1.3-3.7-3.7-3.7c-1.8,0-3.4,0.9-4.6,2.3l-2.5-2.3c1.9-2.1,4.4-3.7,7.6-3.7
					c4.4,0,7.5,2.5,7.5,7c0,5.6-6.8,7.6-6.2,13.3h-3.9C16.6,283.9,23.2,281.4,23.2,277.3z M16.5,296.7c0-1.8,1.3-3.1,2.9-3.1
					c1.6,0,2.9,1.3,2.9,3.1c0,1.8-1.3,3.1-2.9,3.1C17.8,299.8,16.5,298.5,16.5,296.7z"/>
			</g>
		</g>
	</g>
</g>
</svg>
