<?xml version="1.0" encoding="utf-8"?>
<!-- Generator: Adobe Illustrator 19.2.1, SVG Export Plug-In . SVG Version: 6.00 Build 0)  -->
<svg version="1.1" id="圖層_1" xmlns="http://www.w3.org/2000/svg" xmlns:xlink="http://www.w3.org/1999/xlink" x="0px" y="0px"
	 viewBox="0 0 114.1 17.7" style="enable-background:new 0 0 114.1 17.7;" xml:space="preserve">
<style type="text/css">
	.st0{fill:#3F4D5D;}
</style>
<path class="st0" d="M109.2,5c0.3-0.7,0.7-1.3,1.2-1.9c0.5-0.5,0.9-1.2,1-1.9c0-0.6-0.5-1.1-1.1-1.1c0,0-0.1,0-0.1,0
	c-0.7,0-1.3,0.5-1.3,1.2c0,0,0,0.1,0,0.1c0,0.5,0.1,0.9,0.2,1.3C109.2,3.4,109.2,4.2,109.2,5c-1.6-2-1.2-3.9-2.9-3.9
	c-0.7,0-1.3,0.6-1.3,1.3c0,0.5,0.3,0.9,1.1,1.2c1,0.3,1.9,0.8,2.8,1.4c-0.8,0.1-1.7,0-2.5-0.1c-0.3-0.1-0.7-0.1-1.1-0.1
	c-0.7-0.1-1.3,0.4-1.3,1.1c0,0.1,0,0.1,0,0.2c0,0.7,0.5,1.3,1.2,1.3c0.7-0.1,1.3-0.5,1.8-1c0.6-0.5,1.2-1,1.9-1.2
	c-0.3,0.7-0.7,1.3-1.2,1.9c-0.5,0.5-0.9,1.2-1,1.9c0,0.6,0.5,1.1,1.1,1.1c0,0,0.1,0,0.1,0c0.7,0,1.3-0.5,1.3-1.2c0,0,0-0.1,0-0.1
	c0-0.5-0.1-0.9-0.2-1.3c-0.2-0.7-0.2-1.5-0.1-2.2c1.5,1.9,1.1,3.9,2.7,3.9c0.7,0,1.3-0.6,1.2-1.3c0-0.5-0.3-0.9-1.1-1.2
	C111,6.1,110.1,5.6,109.2,5c0.9,0,1.7,0.1,2.5,0.2c0.3,0.1,0.7,0.1,1.1,0.1c0.7,0.1,1.3-0.4,1.3-1.1c0-0.1,0-0.1,0-0.2
	c0-0.7-0.5-1.3-1.2-1.3c-0.7,0.1-1.3,0.5-1.8,1C110.6,4.3,109.9,4.7,109.2,5L109.2,5z"/>
<g>
	<path class="st0" d="M0.7,3V2.8h5.1c0.7,0,1.4,0.1,2,0.2s1.1,0.3,1.6,0.5c0.5,0.2,0.9,0.4,1.2,0.7s0.6,0.5,0.9,0.7
		c0.4,0.4,0.8,0.9,1.1,1.4c0.3,0.5,0.5,1,0.7,1.6s0.2,1.2,0.2,1.8c0,0.6-0.1,1.2-0.2,1.7s-0.3,1-0.6,1.5c-0.3,0.5-0.6,0.9-1,1.3
		c-0.4,0.4-0.8,0.7-1.3,1c-0.4,0.3-0.9,0.5-1.5,0.6S7.5,16,6.6,16H0.7v-0.1h0.2c0.4,0,0.7-0.2,0.9-0.5c0.2-0.3,0.3-0.6,0.3-1V4.4
		c0-0.3-0.1-0.6-0.2-0.8C1.8,3.4,1.7,3.2,1.5,3.1C1.3,3,1.1,3,0.9,3H0.7z M3.4,3.4v10.4c0,0.5,0.1,0.9,0.2,1.1
		c0.2,0.2,0.4,0.4,0.8,0.5s0.9,0.1,1.5,0.1c1,0,1.8-0.1,2.4-0.3c0.7-0.2,1.3-0.6,1.9-1.3c0.5-0.5,0.8-1.1,1.1-1.8
		c0.3-0.7,0.4-1.5,0.4-2.5c0-0.8-0.1-1.6-0.3-2.3c-0.2-0.8-0.6-1.4-1-2c-0.5-0.7-1.2-1.2-2-1.6C7.7,3.4,6.7,3.2,5.6,3.2
		C5,3.2,4.3,3.3,3.4,3.4z"/>
	<path class="st0" d="M14.8,9.1h4.7v0.7h-4.7V9.1z"/>
	<path class="st0" d="M20.7,3V2.8h7.9v2h-0.1c0-0.4-0.2-0.8-0.5-1.1s-0.7-0.5-1.4-0.5h-3.2v6h3c0.6,0,0.9-0.1,1.1-0.3s0.3-0.5,0.4-1
		h0.1v3h-0.1c0-0.4-0.2-0.7-0.4-0.9c-0.2-0.2-0.6-0.4-1.2-0.4h-3v4.8c0,0.4,0.1,0.8,0.4,1.1c0.3,0.3,0.6,0.4,0.9,0.4h0.2V16h-4.2
		v-0.1h0.2c0.4,0,0.7-0.1,0.9-0.4c0.2-0.3,0.4-0.6,0.4-1v-10c0-0.6-0.1-1-0.4-1.2C21.4,3.1,21.1,3,20.8,3H20.7z"/>
	<path class="st0" d="M35,2.6l3.9,11.3c0.2,0.6,0.4,1,0.6,1.3c0.2,0.3,0.4,0.4,0.5,0.5s0.4,0.1,0.6,0.1V16h-4.3v-0.1
		c0.4,0,0.8,0,1-0.1c0.2-0.1,0.4-0.3,0.4-0.7c0-0.2-0.1-0.5-0.2-0.8c0,0,0-0.1,0-0.1l-1.2-3.5h-4.6l-1,3.2c-0.1,0.4-0.2,0.8-0.2,1.1
		c0,0.4,0.1,0.6,0.3,0.7c0.2,0.1,0.4,0.2,0.8,0.2V16h-3.1v-0.1c0.4,0,0.8-0.2,1.1-0.5s0.5-0.7,0.7-1.3L34,2.6H35z M32,10.1h4.2
		L34,3.9h0L32,10.1z"/>
	<path class="st0" d="M48.3,5.3h-0.1c-0.1-0.6-0.4-1.2-0.8-1.7c-0.5-0.5-1.1-0.7-1.9-0.7c-0.5,0-1,0.1-1.4,0.4
		c-0.4,0.2-0.7,0.6-0.9,1c-0.2,0.4-0.3,0.9-0.3,1.4c0,0.4,0.1,0.8,0.2,1.1c0.1,0.3,0.3,0.6,0.6,0.8c0.3,0.2,0.5,0.5,0.9,0.7
		c0.3,0.2,0.8,0.5,1.4,0.8c1,0.5,1.7,1.1,2.3,1.6c0.5,0.5,0.8,1.3,0.8,2.2c0,0.6-0.1,1.1-0.4,1.6c-0.3,0.5-0.7,0.9-1.3,1.3
		c-0.6,0.3-1.3,0.5-2.2,0.5c-0.5,0-1-0.1-1.4-0.2c-0.4-0.1-0.8-0.3-1.3-0.5c-0.2-0.1-0.3-0.1-0.4-0.1c-0.1,0-0.2,0-0.2,0.1
		c0,0.1-0.1,0.3-0.2,0.6h-0.2v-3.3h0.2c0.2,1,0.6,1.7,1.3,2.2c0.6,0.5,1.4,0.7,2.3,0.7c0.7,0,1.2-0.1,1.6-0.4
		c0.4-0.3,0.7-0.6,0.8-0.9c0.2-0.4,0.2-0.7,0.2-1.1c0-0.7-0.2-1.3-0.7-1.8c-0.4-0.5-1.1-0.9-2.1-1.4c-0.6-0.3-1.1-0.6-1.4-0.8
		C43.3,9.3,43,9,42.7,8.7c-0.3-0.3-0.6-0.7-0.7-1.1c-0.2-0.4-0.3-0.9-0.3-1.4c0-0.6,0.2-1.2,0.5-1.8c0.3-0.6,0.8-1,1.4-1.4
		c0.6-0.3,1.3-0.5,2-0.5c0.6,0,1.2,0.1,1.8,0.3c0.1,0,0.2,0.1,0.4,0.1c0.2,0,0.3-0.1,0.4-0.4h0.1V5.3z"/>
	<path class="st0" d="M60.4,8.8V4.4c0-0.4-0.1-0.8-0.3-1.1C59.9,3.1,59.5,3,59,3V2.8h4.2V3c-0.5,0-0.8,0.1-1.1,0.4
		c-0.2,0.3-0.3,0.6-0.3,1.1v10c0,1,0.5,1.4,1.4,1.4V16H59v-0.1c0.4,0,0.8-0.1,1-0.4c0.3-0.2,0.4-0.6,0.4-1.1V9.2h-7.5v5.1
		c0,0.5,0.1,0.8,0.4,1.1c0.3,0.3,0.6,0.4,1,0.4V16h-4.2v-0.1c0.5,0,0.8-0.1,1-0.4c0.2-0.3,0.4-0.6,0.4-1.1v-10c0-1-0.5-1.5-1.4-1.5
		V2.8h4.2V3c-0.5,0-0.9,0.1-1.1,0.4C53,3.6,52.9,4,52.9,4.4v4.4H60.4z"/>
	<path class="st0" d="M68.7,2.8V3c-0.4,0-0.7,0.1-1,0.3c-0.3,0.2-0.4,0.6-0.4,1.1v10c0,0.5,0.1,0.9,0.4,1.1s0.6,0.3,1,0.3V16h-4.2
		v-0.1c0.4,0,0.7-0.1,1-0.3c0.3-0.2,0.4-0.6,0.4-1.1v-10c0-0.5-0.1-0.9-0.4-1.1c-0.3-0.2-0.6-0.3-1-0.3V2.8H68.7z"/>
	<path class="st0" d="M84.2,9.4c0,1.2-0.3,2.4-0.9,3.4c-0.6,1.1-1.4,1.9-2.5,2.5c-1.1,0.6-2.2,0.9-3.5,0.9c-1.3,0-2.5-0.3-3.5-0.9
		c-1.1-0.6-1.9-1.5-2.5-2.5c-0.6-1.1-0.9-2.2-0.9-3.5c0-1,0.2-1.9,0.5-2.7c0.4-0.8,0.9-1.6,1.5-2.2c0.7-0.6,1.4-1.1,2.3-1.5
		c0.8-0.3,1.7-0.5,2.6-0.5c0.9,0,1.8,0.2,2.6,0.5c0.8,0.3,1.6,0.8,2.2,1.4c0.7,0.6,1.2,1.4,1.6,2.2C84,7.4,84.2,8.4,84.2,9.4z
		 M82.6,9.4c0-1.8-0.3-3.1-0.9-4.1c-0.6-1-1.3-1.7-2.1-2C78.7,3,78,2.8,77.3,2.8c-0.6,0-1.1,0.1-1.7,0.3c-0.6,0.2-1.2,0.5-1.7,1
		c-0.6,0.5-1,1.2-1.4,2c-0.4,0.9-0.5,2-0.5,3.2c0,1.1,0.2,2.1,0.5,3c0.3,0.8,0.7,1.5,1.2,2.1c0.5,0.5,1.1,0.9,1.7,1.2
		c0.6,0.2,1.3,0.4,2,0.4c0.6,0,1.2-0.1,1.9-0.3s1.2-0.6,1.7-1.1c0.5-0.5,0.9-1.2,1.3-2C82.5,11.7,82.6,10.7,82.6,9.4z"/>
	<path class="st0" d="M99.5,2.8V3c-0.3,0-0.6,0.1-0.8,0.2c-0.2,0.1-0.3,0.3-0.5,0.5c-0.1,0.3-0.2,0.6-0.2,1.1v11.6H98L87.9,5v8.1
		c0,0.7,0,1.2,0.1,1.5c0.1,0.3,0.1,0.6,0.2,0.7c0.2,0.3,0.6,0.5,1.2,0.5V16H86v-0.1c0.4,0,0.7-0.1,0.9-0.2c0.2-0.1,0.4-0.4,0.4-0.8
		c0.1-0.4,0.1-0.9,0.1-1.7V4.6L87,4.1c-0.4-0.4-0.7-0.7-0.9-0.8S85.6,3,85.2,3V2.8h2.5l10,11.2V5.5c0-0.6,0-1.1-0.1-1.4
		c-0.1-0.3-0.2-0.6-0.4-0.8C97,3.1,96.6,3,96.2,3V2.8H99.5z"/>
</g>
</svg>
