<?xml version="1.0" encoding="utf-8"?>
<!-- Generator: Adobe Illustrator 19.2.1, SVG Export Plug-In . SVG Version: 6.00 Build 0)  -->
<svg version="1.1" id="圖層_1" xmlns="http://www.w3.org/2000/svg" xmlns:xlink="http://www.w3.org/1999/xlink" x="0px" y="0px"
	 viewBox="0 0 219.5 40" style="enable-background:new 0 0 219.5 40;" xml:space="preserve">
<style type="text/css">
	.st0{fill:#3F4D5D;}
	.st1{font-family:'PerpetuaTitlingMT-Light';}
	.st2{font-size:25.2639px;}
</style>
<path class="st0" d="M212.1,14.4c0.4-1.1,1-2,1.8-2.8c0.6-0.8,1.5-1.7,1.5-2.8c0-0.9-0.8-1.7-1.7-1.7c0,0-0.1,0-0.1,0
	c-1.1,0-1.9,0.8-2,1.8c0,0,0,0.1,0,0.1c0,0.7,0.1,1.3,0.3,2c0.3,1.1,0.3,2.2,0.1,3.3c-2.2-2.9-1.6-5.8-4.1-5.8c-1.1,0-1.9,0.9-1.9,2
	c0,0.7,0.4,1.4,1.7,1.9c1.5,0.5,2.9,1.2,4.2,2.1c-1.3,0.1-2.5,0.1-3.8-0.1c-0.5-0.1-1.1-0.2-1.6-0.2c-1-0.1-1.9,0.6-2,1.6
	c0,0.1,0,0.2,0,0.3c0,1.1,0.8,1.9,1.9,2c0.9,0,1.8-0.8,2.7-1.5c0.8-0.8,1.8-1.4,2.9-1.8c-0.4,1.1-1.1,2-1.8,2.8
	c-0.6,0.8-1.5,1.7-1.5,2.8c0,0.9,0.8,1.7,1.7,1.7c0,0,0.1,0,0.1,0c1.1,0,1.9-0.8,2-1.8c0,0,0-0.1,0-0.1c0-0.7-0.1-1.3-0.3-2
	c-0.2-1.1-0.3-2.2-0.1-3.4c2.2,2.9,1.6,5.8,4.1,5.8c1.1,0,1.9-0.9,1.9-2c0-0.7-0.4-1.4-1.7-1.9c-1.5-0.5-2.9-1.2-4.2-2.1
	c1.3-0.1,2.5-0.1,3.8,0.1c0.5,0.1,1.1,0.2,1.6,0.2c1,0.1,1.9-0.6,2-1.6c0-0.1,0-0.2,0-0.3c0-1.1-0.8-1.9-1.9-2
	c-0.9,0-1.8,0.8-2.7,1.5C214.1,13.3,213.2,13.9,212.1,14.4L212.1,14.4z"/>
<text transform="matrix(1 0 0 1 52.3328 29.4535)" class="st0 st1 st2">D-FASHION</text>
<g>
	<path class="st0" d="M24.4,14.8c-0.7-0.9-1.6-1.7-2.7-2.2c-1.1-0.5-2.4-0.8-4-0.8c-0.8,0-1.8,0.1-3,0.3v14.4c0,0.7,0.1,1.2,0.3,1.6
		s0.6,0.5,1.1,0.6s1.2,0.1,2.1,0.1c1.3,0,2.4-0.1,3.3-0.4c0.9-0.3,1.8-0.8,2.6-1.7c0.6-0.7,1.1-1.5,1.5-2.4c0.4-1,0.6-2.1,0.6-3.5
		c0-1.1-0.2-2.1-0.5-3.2S25,15.6,24.4,14.8z"/>
	<path class="st0" d="M36.6,13C32.7,3.8,22.2-0.5,13,3.4C6.3,6.2,2,12.8,2,20c0,9.9,8.1,18,18,18c2.4,0,4.8-0.5,7-1.4
		C36.2,32.7,40.5,22.2,36.6,13z M28.1,23.1c-0.2,0.7-0.5,1.4-0.9,2.1c-0.4,0.6-0.8,1.2-1.3,1.7c-0.5,0.5-1.1,1-1.8,1.4
		c-0.6,0.3-1.3,0.6-2,0.8s-1.8,0.3-3.1,0.3h-8.2v-0.2h0.2c0.6,0,1-0.2,1.3-0.6c0.3-0.4,0.4-0.9,0.4-1.4V13.5c0-0.5-0.1-0.8-0.2-1.2
		s-0.4-0.5-0.6-0.7c-0.3-0.1-0.5-0.2-0.9-0.2h-0.2v-0.2h7c1,0,1.9,0.1,2.7,0.3c0.8,0.2,1.6,0.4,2.2,0.7c0.7,0.3,1.2,0.6,1.7,0.9
		s0.9,0.7,1.2,1c0.6,0.6,1.1,1.2,1.5,1.9c0.4,0.7,0.7,1.4,0.9,2.2c0.2,0.8,0.3,1.6,0.3,2.4S28.3,22.3,28.1,23.1z M34.1,10.2
		c0,0.5-0.5,0.8-0.9,0.8c-0.2,0-0.4,0-0.5-0.1l-0.2,0c-0.4-0.1-0.8-0.1-1.2-0.1c-0.2,0-0.4,0-0.6,0c0.6,0.4,1.3,0.7,2,1
		c0.5,0.2,0.8,0.5,0.8,0.9c0,0.5-0.4,0.9-0.9,0.9c-0.7,0-0.9-0.5-1.1-1.2c-0.2-0.6-0.4-1.1-0.8-1.6l0,0.1c-0.1,0.5-0.1,1,0.1,1.5
		l0,0.2c0,0.2,0.1,0.5,0.1,0.7c0,0,0,0,0,0.1c0,0.5-0.4,0.9-0.9,0.9c0,0,0,0-0.1,0c-0.4,0-0.8-0.4-0.8-0.8c0.1-0.4,0.2-0.8,0.5-1.1
		c0-0.1,0.1-0.1,0.1-0.2l0.1-0.1c0.3-0.3,0.6-0.7,0.7-1.2l0,0c-0.5,0.2-1,0.5-1.4,0.9c-0.3,0.4-0.8,0.6-1.2,0.7
		c-0.5,0-0.9-0.4-0.9-0.9c0,0,0-0.1,0-0.1c0-0.5,0.5-0.8,0.9-0.8c0.2,0,0.4,0,0.5,0.1l0.2,0c0.4,0.1,0.8,0.1,1.2,0.1
		c0.2,0,0.4,0,0.6,0c-0.6-0.4-1.3-0.7-2-1c-0.5-0.2-0.8-0.5-0.8-0.9c0-0.5,0.4-0.9,0.9-0.9c0.7,0,0.9,0.5,1.1,1.2
		c0.2,0.6,0.4,1.1,0.8,1.5c0.1-0.5,0-1-0.1-1.6l0-0.2c0-0.2-0.1-0.5-0.1-0.7c0,0,0,0,0-0.1c0-0.5,0.4-0.9,0.9-0.9c0,0,0,0,0.1,0
		c0.4,0,0.8,0.4,0.8,0.8C32.1,8.6,32,9,31.7,9.3c0,0.1-0.1,0.1-0.1,0.2c-0.4,0.4-0.6,0.8-0.8,1.3c0.5-0.2,1-0.5,1.3-0.9
		c0.3-0.4,0.8-0.6,1.2-0.7c0.5,0,0.9,0.4,0.9,0.9C34.1,10.2,34.1,10.2,34.1,10.2z"/>
	<path class="st0" d="M38.4,12.2C34.1,2,22.4-2.7,12.2,1.6C4.8,4.7,0,12,0,20C0,31,9,40,20,40c2.7,0,5.3-0.5,7.8-1.6
		C38,34.1,42.7,22.4,38.4,12.2z M12.4,38C5.2,34.9,0.5,27.8,0.5,20C0.5,9.2,9.2,0.5,20,0.5c2.6,0,5.2,0.5,7.6,1.5
		C37.5,6.2,42.2,17.7,38,27.6S22.3,42.2,12.4,38z"/>
</g>
</svg>
