<?xml version="1.0" encoding="utf-8"?>
<!-- Generator: Adobe Illustrator 19.2.1, SVG Export Plug-In . SVG Version: 6.00 Build 0)  -->
<svg version="1.1" id="圖層_1" xmlns="http://www.w3.org/2000/svg" xmlns:xlink="http://www.w3.org/1999/xlink" x="0px" y="0px"
	 viewBox="0 0 40 40" style="enable-background:new 0 0 40 40;" xml:space="preserve">
<style type="text/css">
	.st0{fill:#EAF0ED;}
</style>
<g>
	<path class="st0" d="M25.8,15.1c-0.7-0.9-1.6-1.7-2.7-2.2c-1.1-0.5-2.4-0.8-4-0.8c-0.8,0-1.8,0.1-3,0.3v14.4c0,0.7,0.1,1.2,0.3,1.6
		s0.6,0.5,1.1,0.6s1.2,0.1,2.1,0.1c1.3,0,2.4-0.1,3.3-0.4c0.9-0.3,1.8-0.8,2.6-1.7c0.6-0.7,1.1-1.5,1.5-2.4c0.4-1,0.6-2.1,0.6-3.5
		c0-1.1-0.2-2.1-0.5-3.2C26.9,16.9,26.4,15.9,25.8,15.1z"/>
	<path class="st0" d="M36.6,13C32.7,3.8,22.2-0.5,13,3.4C6.3,6.2,2,12.8,2,20c0,9.9,8.1,18,18,18c2.4,0,4.8-0.5,7-1.4
		C36.2,32.7,40.5,22.2,36.6,13z M29.5,23.4c-0.2,0.7-0.5,1.4-0.9,2.1s-0.8,1.2-1.3,1.7c-0.5,0.5-1.1,1-1.8,1.4
		c-0.6,0.3-1.3,0.6-2,0.8c-0.8,0.2-1.8,0.3-3.1,0.3h-8.2v-0.2h0.2c0.6,0,1-0.2,1.3-0.6c0.3-0.4,0.4-0.9,0.4-1.4V13.8
		c0-0.5-0.1-0.8-0.2-1.2s-0.4-0.5-0.6-0.7c-0.3-0.1-0.5-0.2-0.9-0.2h-0.2v-0.2h7c1,0,1.9,0.1,2.7,0.3c0.8,0.2,1.6,0.4,2.2,0.7
		c0.7,0.3,1.2,0.6,1.7,0.9c0.5,0.3,0.9,0.7,1.2,1c0.6,0.6,1.1,1.2,1.5,1.9s0.7,1.4,0.9,2.2c0.2,0.8,0.3,1.6,0.3,2.4
		C29.8,21.8,29.7,22.6,29.5,23.4z M33,9.3c0,0.5-0.5,0.8-0.9,0.8c-0.2,0-0.4,0-0.5-0.1l-0.2,0c-0.4-0.1-0.8-0.1-1.2-0.1
		c-0.2,0-0.4,0-0.6,0c0.6,0.4,1.3,0.7,2,1c0.5,0.2,0.8,0.5,0.8,0.9c0,0.5-0.4,0.9-0.9,0.9c-0.7,0-0.9-0.5-1.1-1.2
		c-0.2-0.6-0.4-1.1-0.8-1.6l0,0.1c-0.1,0.5-0.1,1,0.1,1.5l0,0.2c0,0.2,0.1,0.5,0.1,0.7c0,0,0,0,0,0.1c0,0.5-0.4,0.9-0.9,0.9
		c0,0,0,0-0.1,0c-0.4,0-0.8-0.4-0.8-0.8c0.1-0.4,0.2-0.8,0.5-1.1c0-0.1,0.1-0.1,0.1-0.2l0.1-0.1c0.3-0.3,0.6-0.7,0.7-1.2l0,0
		c-0.5,0.2-1,0.5-1.4,0.9c-0.3,0.4-0.8,0.6-1.2,0.7c-0.5,0-0.9-0.4-0.9-0.9c0,0,0-0.1,0-0.1c0-0.5,0.5-0.8,0.9-0.8
		c0.2,0,0.4,0,0.5,0.1l0.2,0c0.4,0.1,0.8,0.1,1.2,0.1c0.2,0,0.4,0,0.6,0c-0.6-0.4-1.3-0.7-2-1c-0.5-0.2-0.8-0.5-0.8-0.9
		c0-0.5,0.4-0.9,0.9-0.9c0.7,0,0.9,0.5,1.1,1.2c0.2,0.6,0.4,1.1,0.8,1.5c0.1-0.5,0-1-0.1-1.6l0-0.2c0-0.2-0.1-0.5-0.1-0.7
		c0,0,0,0,0-0.1c0-0.5,0.4-0.9,0.9-0.9c0,0,0,0,0.1,0c0.4,0,0.8,0.4,0.8,0.8c-0.1,0.4-0.2,0.8-0.5,1.1c0,0.1-0.1,0.1-0.1,0.2
		c-0.4,0.4-0.6,0.8-0.8,1.3c0.5-0.2,1-0.5,1.3-0.9c0.3-0.4,0.8-0.6,1.2-0.7c0.5,0,0.9,0.4,0.9,0.9C33,9.3,33,9.3,33,9.3z"/>
	<path class="st0" d="M38.4,12.2C34.1,2,22.4-2.7,12.2,1.6C4.8,4.7,0,12,0,20C0,31,9,40,20,40c2.7,0,5.3-0.5,7.8-1.6
		C38,34.1,42.7,22.4,38.4,12.2z M12.4,38C5.2,34.9,0.5,27.8,0.5,20C0.5,9.2,9.2,0.5,20,0.5c2.6,0,5.2,0.5,7.6,1.5
		C37.5,6.2,42.2,17.7,38,27.6S22.3,42.2,12.4,38z"/>
</g>
</svg>
