<?xml version="1.0" encoding="utf-8"?>
<!-- Generator: Adobe Illustrator 19.2.1, SVG Export Plug-In . SVG Version: 6.00 Build 0)  -->
<svg version="1.1" id="圖層_1" xmlns="http://www.w3.org/2000/svg" xmlns:xlink="http://www.w3.org/1999/xlink" x="0px" y="0px"
	 viewBox="0 0 59.3 218.7" style="enable-background:new 0 0 59.3 218.7;" xml:space="preserve">
<style type="text/css">
	.st0{fill:#3F4D5D;}
</style>
<path class="st0" d="M45.3,138.5v-24h0.8v24H45.3z"/>
<path class="st0" d="M45.3,162.5v-24h0.8v24H45.3z"/>
<g>
	<path class="st0" d="M48.2,6.9c-0.2,0.2-0.3,0.5-0.5,0.7c2.6,2.9,7.1,5.9,10.7,7.5c-0.6,0.5-1.5,1.6-1.9,2.3
		c-3.4-1.8-7.4-4.8-10.3-7.9c-2.9,3.4-6.7,6.2-10.5,8.1c-0.4-0.7-1.2-1.6-1.9-2.2c4.7-2.1,9.4-5.6,12-9.7L48.2,6.9z M53.8,18.5
		l1.9,0.9c-2.3,3.2-5.7,7.5-8.5,11l-2.5-1.2c2.1-2.5,4.7-5.6,6.6-8.1H37.1v-2.5h16.3L53.8,18.5z M50.8,14.2v2.3h-9.1v-2.3H50.8z"/>
	<path class="st0" d="M47.8,44.9c1.9,4.6,5.4,8.1,10.6,9.5c-0.6,0.5-1.3,1.6-1.7,2.3c-5.1-1.7-8.5-5-10.6-9.8
		c-1.3,3.7-4.3,7.3-10.6,9.8c-0.3-0.6-1.1-1.6-1.6-2.1c6.5-2.5,9.1-6.2,10.1-9.7h-9.3v-2.5h9.8c0.1-0.9,0.1-1.8,0.1-2.6V37h-9v-2.5
		h20.8V37h-9.3v2.9c0,0.8,0,1.7-0.1,2.5h10.5v2.5H47.8z"/>
	<path class="st0" d="M47.5,80.5c0.8,0.1,1.8,0.1,2.7,0.1c1.2,0,6.5,0,8,0c-0.3,0.6-0.7,1.6-0.8,2.3h-7.3c-5.1,0-8.4-0.7-10.6-4.1
		c-1,1.9-2.3,3.5-3.9,4.6c-0.4-0.5-1.3-1.4-1.8-1.8c2.7-1.7,4.3-4.6,5-8.3l2.5,0.3c-0.2,0.9-0.4,1.7-0.7,2.5c1,2.1,2.4,3.3,4.5,3.9
		v-7.4H34.5v-2.2h23.2v2.2H47.5v2.5H56v2.1h-8.4V80.5z M54.9,68.9H37.1V60h17.8V68.9z M52.4,61.8h-13v1.8h13V61.8z M52.4,65.3h-13
		v1.8h13V65.3z"/>
	<path class="st0" d="M41.2,86.3c-0.6,1.7-1.3,3.4-2.1,5.1v18.5h-2.4V95.6c-0.7,1.1-1.4,2.1-2.2,2.9c-0.2-0.6-0.8-2-1.2-2.6
		c2.3-2.5,4.3-6.4,5.6-10.3L41.2,86.3z M57.4,87v22.6H55v-1.3H44.1v1.6h-2.3V87H57.4z M55,106.1V89.2H44.1v16.9H55z M50.6,94.6v2.7
		h2.8v7.1H46v-7.1h2.7v-2.7h-3.6v-1.8h3.6v-2.9h2v2.9h3.7v1.8H50.6z M51.5,99h-3.7v3.5h3.7V99z"/>
</g>
<g>
	<path class="st0" d="M10.3,82.9H4.8v2.3H2.5V65.4h7.8V82.9z M4.8,67.6V73H8v-5.3H4.8z M8,80.7v-5.6H4.8v5.6H8z M19.5,68.9v3h5.5
		v2.1h-2.1v2.5h2.8v2.2h-2.8v6.5c0,1.3-0.3,1.9-1.2,2.3c-0.9,0.4-2.3,0.4-4.3,0.4c-0.1-0.7-0.5-1.6-0.8-2.3c1.5,0.1,2.9,0.1,3.4,0.1
		c0.4,0,0.6-0.1,0.6-0.5v-6.5h-9.6v-2.2h9.6v-2.5h-8.7V72h5.3v-3h-6.3v-2.2h6.3v-3h2.4v3h6.3v2.2H19.5z M14.3,79.5
		c1.2,1.3,2.6,3.2,3.3,4.4l-2.2,1.3c-0.6-1.2-2-3.2-3.2-4.6L14.3,79.5z"/>
	<path class="st0" d="M6.9,97.3c-0.6-1.5-2-3.7-3.3-5.3L5.8,91c1.4,1.6,2.8,3.7,3.4,5.2L6.9,97.3z M23.9,111.7c0,1.3-0.2,2-1.2,2.4
		c-0.9,0.4-2.3,0.5-4.3,0.5c-0.1-0.7-0.5-1.8-0.8-2.4c1.5,0.1,2.9,0,3.3,0c0.4,0,0.6-0.2,0.6-0.5v-11.5H6.1v14.4H3.7V97.9h8.8v-7.6
		H15v7.6h8.9V111.7z M11.2,110.1v1.7H8.9v-9.4h9.7v7.7H11.2z M11.2,104.5v3.5h5.1v-3.5H11.2z M23.9,91.7c-1.2,2-2.7,4.2-3.8,5.6
		l-2-0.8c1.2-1.5,2.6-3.8,3.4-5.6L23.9,91.7z"/>
	<path class="st0" d="M25.2,120.9c0,0,0,0.8,0,1.2c-0.4,12-0.7,16.1-1.8,17.4c-0.7,0.9-1.3,1.1-2.3,1.2c-0.9,0.1-2.5,0.1-4,0
		c-0.1-0.7-0.3-1.7-0.8-2.4c1.7,0.1,3.2,0.2,3.9,0.2c0.5,0,0.8-0.1,1.1-0.5c0.8-0.9,1.2-4.9,1.5-14.9h-6.3c-0.7,1.7-1.6,3.2-2.4,4.5
		c-0.4-0.4-1.3-1-1.9-1.4v12.2H5v2H2.8V121h3c0.4-1.3,0.8-3,0.9-4.3l2.7,0.5c-0.5,1.3-1,2.7-1.4,3.8h4.2v5c1.8-2.3,3.2-5.8,4-9.3
		l2.4,0.6c-0.3,1.2-0.7,2.4-1.1,3.6H25.2z M5,123.2v5H10v-5H5z M10,136.2v-5.9H5v5.9H10z M18.8,134.2c-0.7-1.6-2.5-4.2-3.9-6.1
		l1.9-1.1c1.4,1.8,3.2,4.3,4,5.9L18.8,134.2z"/>
	<path class="st0" d="M25.9,153.9v2.7H1.7v-2.7H25.9z"/>
	<path class="st0" d="M15.5,182.3c1.9,4.6,5.4,8.1,10.6,9.5c-0.6,0.5-1.3,1.6-1.7,2.3c-5.1-1.7-8.5-5-10.6-9.8
		c-1.3,3.7-4.3,7.3-10.6,9.8c-0.3-0.6-1.1-1.6-1.6-2.1c6.5-2.5,9.1-6.2,10.1-9.7H2.4v-2.5h9.8c0.1-0.9,0.1-1.8,0.1-2.6v-2.9h-9v-2.5
		h20.8v2.5h-9.3v2.9c0,0.8,0,1.7-0.1,2.5h10.5v2.5H15.5z"/>
</g>
</svg>
